<?xml version="1.0" encoding="utf-8"?>
<svg xmlns="http://www.w3.org/2000/svg" viewBox="0 0 1024 1024" width="1024px" height="1024px" xmlns:bx="https://boxy-svg.com">
  <defs>
    <bx:export>
      <bx:file format="png" path="locket.png" background="#fff" dpi="241"/>
    </bx:export>
  </defs>
  <ellipse style="fill: rgb(216, 216, 216); stroke: rgb(0, 0, 0); visibility: hidden;" cx="512" cy="512" rx="508.955" ry="508.955"/>
  <g transform="matrix(1.8143, 0, 0, 1.8143, 12.036995, 82.486389)" style="transform-origin: 573.62px 452.45px;">
    <path d="M 578.653 317.982 L 614.731 317.988 C 630.82 318.839 649.396 326.242 659.975 336.82 C 670.554 347.4 677.962 366.21 678.813 382.3 L 678.808 631.116 C 677.956 647.205 670.554 665.781 659.975 676.361 C 649.396 686.939 630.585 694.347 614.495 695.199 L 578.418 695.193 C 562.329 694.342 543.753 686.939 533.173 676.361 C 522.595 665.781 515.187 646.971 514.336 630.881 L 514.342 382.066 C 515.193 365.976 522.595 347.4 533.173 336.82 C 543.753 326.242 562.563 318.834 578.653 317.982 Z M 562.052 365.7 C 556.43 371.189 554.154 374.4 555.163 381.907 L 555.178 630.881 C 554.168 638.388 556.43 641.991 562.053 647.481 C 567.543 653.104 570.753 655.38 578.26 654.371 L 614.495 654.357 C 622.003 655.366 625.607 653.104 631.097 647.481 C 636.719 641.991 638.995 638.78 637.986 631.273 L 637.972 382.3 C 638.981 374.793 636.719 371.188 631.095 365.699 C 625.606 360.077 622.395 357.801 614.887 358.809 L 578.653 358.823 C 571.146 357.815 567.542 360.077 562.052 365.7 Z" style="fill: rgb(54, 54, 54); stroke: rgb(255, 255, 255); paint-order: stroke; stroke-width: 22.996; stroke-linejoin: round; stroke-linecap: round; transform-origin: 596.575px 506.59px;" transform="matrix(0.557107, 0.830441, -0.830441, 0.557107, 0.000006, 0.000012)"/>
    <path d="M 411.903 231.371 L 451.833 231.377 C 469.639 232.228 490.199 239.631 501.907 250.209 C 513.616 260.789 521.815 279.599 522.756 295.689 L 522.751 544.505 C 521.808 560.594 513.616 579.17 501.907 589.75 C 490.199 600.328 469.379 607.736 451.571 608.588 L 411.643 608.582 C 393.836 607.731 373.276 600.328 361.567 589.75 C 349.859 579.17 341.661 560.36 340.719 544.27 L 340.725 295.455 C 341.667 279.365 349.859 260.789 361.567 250.209 C 373.276 239.631 394.095 232.223 411.903 231.371 Z M 393.529 279.089 C 387.307 284.578 384.788 287.789 385.905 295.296 L 385.921 544.27 C 384.803 551.777 387.307 555.38 393.53 560.87 C 399.606 566.493 403.159 568.769 411.468 567.76 L 451.571 567.746 C 459.881 568.755 463.87 566.493 469.946 560.87 C 476.168 555.38 478.687 552.169 477.57 544.662 L 477.555 295.689 C 478.672 288.182 476.168 284.577 469.944 279.088 C 463.869 273.466 460.315 271.19 452.005 272.198 L 411.903 272.212 C 403.594 271.204 399.605 273.466 393.529 279.089 Z" style="fill: rgb(54, 54, 54); stroke: rgb(255, 255, 255); paint-order: stroke; stroke-width: 22.9965px; stroke-linejoin: round; stroke-linecap: round; transform-origin: 431.738px 419.979px;" transform="matrix(0.999949, 0.010098, -0.010098, 0.999949, 0, 0)"/>
  </g>
</svg>